<svg xmlns="http://www.w3.org/2000/svg" viewBox="0 0 96 96" role="img" aria-label="TikTok">
  <rect width="96" height="96" rx="22" fill="#050505"/>
  <path fill="#25f4ee" d="M55 17h10.5c1.2 8.5 6 13.7 14.5 15.5v12.2c-5.2-.2-9.9-1.8-14.1-4.6v20.3c0 13.4-8.5 21.6-21.2 21.6-11.5 0-20.2-7.3-20.2-18.1 0-11.2 8.7-18.5 21.4-18.5 1.3 0 2.5.1 3.7.3v12.5c-1.2-.4-2.4-.6-3.7-.6-5.1 0-8.1 2.8-8.1 6.9 0 4 3.1 6.7 7.4 6.7 4.8 0 7.8-2.7 7.8-8.9V17z"/>
  <path fill="#fe2c55" d="M60.7 17h5.8c1.2 8.5 6 13.7 14.5 15.5v8.5c-7.1-1-14-4.9-18.1-10.5v30.9c0 13.4-8.5 21.6-21.2 21.6-7.2 0-13.3-2.9-16.9-7.8 3.7 2.9 8.4 4.5 13.8 4.5 12.7 0 21.2-8.2 21.2-21.6V17z"/>
  <path fill="#fff" d="M54 17h10.5c1.2 8.5 6 13.7 14.5 15.5v10.1c-5.2-.2-9.9-1.8-14.1-4.6v20.3c0 13.4-8.5 21.6-21.2 21.6-11.5 0-20.2-7.3-20.2-18.1 0-11.2 8.7-18.5 21.4-18.5 1.3 0 2.5.1 3.7.3v10.4c-1.2-.4-2.4-.6-3.7-.6-5.1 0-8.1 2.8-8.1 6.9 0 4 3.1 6.7 7.4 6.7 4.8 0 7.8-2.7 7.8-8.9V17z"/>
</svg>
